<svg xmlns="http://www.w3.org/2000/svg" width="576" height="344">
    <defs>
        <style type="text/css">
        @namespace "http://www.w3.org/2000/svg";
        .line                 {fill: none; stroke: #332900;}
        .bold-line            {stroke: #141000; shape-rendering: crispEdges; stroke-width: 2; }
        .thin-line            {stroke: #1F1800; shape-rendering: crispEdges}
        .filled               {fill: #332900; stroke: none;}
        text.terminal         {
            font-family: Verdana, Sans-serif;
            font-size: 12px;
            fill: #141000;
            font-weight: bold;
        }
        text.nonterminal      {
            font-family: Verdana, Sans-serif;
            font-size: 12px;
            fill: #1A1400;
        }
        text.regexp           {
            font-family: Verdana, Sans-serif;
            font-size: 12px;
            fill: #1F1800;
        }
        rect, circle, polygon {fill: #332900; stroke: #332900;}
        rect.terminal         {fill: #FFDB4D; stroke: #332900;}
        rect.nonterminal      {fill: #FFEC9E; stroke: #332900;}
        rect.text             {fill: none; stroke: none;}    
        polygon.regexp        {fill: #FFF4C7; stroke: #332900;}
    </style>
    </defs>
    <polygon points="9 61 1 57 1 65"/>
    <polygon points="17 61 9 57 9 65"/>
    <rect x="51" y="47" width="36" height="32" rx="10"/>
    <rect x="49" y="45" width="36" height="32" class="terminal" rx="10"/>
    <text class="terminal" x="59" y="65">Fn</text>
    <rect x="107" y="47" width="26" height="32" rx="10"/>
    <rect x="105" y="45" width="26" height="32" class="terminal" rx="10"/>
    <text class="terminal" x="115" y="65">(</text>
    <a xmlns:xlink="http://www.w3.org/1999/xlink" xlink:href="#name" xlink:title="name">
       <rect x="193" y="47" width="54" height="32"/>
       <rect x="191" y="45" width="54" height="32" class="nonterminal"/>
       <text class="nonterminal" x="201" y="65">name</text>
    </a>
    <rect x="267" y="47" width="24" height="32" rx="10"/>
    <rect x="265" y="45" width="24" height="32" class="terminal" rx="10"/>
    <text class="terminal" x="275" y="65">:</text>
    <a xmlns:xlink="http://www.w3.org/1999/xlink" xlink:href="#type" xlink:title="type">
       <rect x="331" y="47" width="48" height="32"/>
       <rect x="329" y="45" width="48" height="32" class="nonterminal"/>
       <text class="nonterminal" x="339" y="65">type</text>
    </a>
    <rect x="173" y="3" width="24" height="32" rx="10"/>
    <rect x="171" y="1" width="24" height="32" class="terminal" rx="10"/>
    <text class="terminal" x="181" y="21">,</text>
    <rect x="439" y="47" width="24" height="32" rx="10"/>
    <rect x="437" y="45" width="24" height="32" class="terminal" rx="10"/>
    <text class="terminal" x="447" y="65">,</text>
    <rect x="503" y="47" width="26" height="32" rx="10"/>
    <rect x="501" y="45" width="26" height="32" class="terminal" rx="10"/>
    <text class="terminal" x="511" y="65">)</text>
    <rect x="51" y="113" width="70" height="32" rx="10"/>
    <rect x="49" y="111" width="70" height="32" class="terminal" rx="10"/>
    <text class="terminal" x="59" y="131">Generic</text>
    <rect x="51" y="157" width="44" height="32" rx="10"/>
    <rect x="49" y="155" width="44" height="32" class="terminal" rx="10"/>
    <text class="terminal" x="59" y="175">List</text>
    <rect x="135" y="157" width="26" height="32" rx="10"/>
    <rect x="133" y="155" width="26" height="32" class="terminal" rx="10"/>
    <text class="terminal" x="143" y="175">(</text>
    <a xmlns:xlink="http://www.w3.org/1999/xlink" xlink:href="#type" xlink:title="type">
       <rect x="181" y="157" width="48" height="32"/>
       <rect x="179" y="155" width="48" height="32" class="nonterminal"/>
       <text class="nonterminal" x="189" y="175">type</text>
    </a>
    <rect x="249" y="157" width="26" height="32" rx="10"/>
    <rect x="247" y="155" width="26" height="32" class="terminal" rx="10"/>
    <text class="terminal" x="257" y="175">)</text>
    <rect x="51" y="223" width="64" height="32" rx="10"/>
    <rect x="49" y="221" width="64" height="32" class="terminal" rx="10"/>
    <text class="terminal" x="59" y="241">Object</text>
    <rect x="51" y="267" width="38" height="32" rx="10"/>
    <rect x="49" y="265" width="38" height="32" class="terminal" rx="10"/>
    <text class="terminal" x="59" y="285">Int</text>
    <rect x="51" y="311" width="52" height="32" rx="10"/>
    <rect x="49" y="309" width="52" height="32" class="terminal" rx="10"/>
    <text class="terminal" x="59" y="329">Float</text>
    <svg:path xmlns:svg="http://www.w3.org/2000/svg" class="line" d="m17 61 h2 m20 0 h10 m36 0 h10 m0 0 h10 m26 0 h10 m40 0 h10 m54 0 h10 m0 0 h10 m24 0 h10 m-138 0 h20 m118 0 h20 m-158 0 q10 0 10 10 m138 0 q0 -10 10 -10 m-148 10 v14 m138 0 v-14 m-138 14 q0 10 10 10 m118 0 q10 0 10 -10 m-128 10 h10 m0 0 h108 m20 -34 h10 m48 0 h10 m-246 0 l20 0 m-1 0 q-9 0 -9 -10 l0 -24 q0 -10 10 -10 m226 44 l20 0 m-20 0 q10 0 10 -10 l0 -24 q0 -10 -10 -10 m-226 0 h10 m24 0 h10 m0 0 h182 m40 44 h10 m24 0 h10 m-64 0 h20 m44 0 h20 m-84 0 q10 0 10 10 m64 0 q0 -10 10 -10 m-74 10 v14 m64 0 v-14 m-64 14 q0 10 10 10 m44 0 q10 0 10 -10 m-54 10 h10 m0 0 h34 m20 -34 h10 m26 0 h10 m-518 0 h20 m498 0 h20 m-538 0 q10 0 10 10 m518 0 q0 -10 10 -10 m-528 10 v46 m518 0 v-46 m-518 46 q0 10 10 10 m498 0 q10 0 10 -10 m-508 10 h10 m70 0 h10 m0 0 h408 m-508 -10 v20 m518 0 v-20 m-518 20 v24 m518 0 v-24 m-518 24 q0 10 10 10 m498 0 q10 0 10 -10 m-508 10 h10 m44 0 h10 m20 0 h10 m26 0 h10 m0 0 h10 m48 0 h10 m0 0 h10 m26 0 h10 m-180 0 h20 m160 0 h20 m-200 0 q10 0 10 10 m180 0 q0 -10 10 -10 m-190 10 v14 m180 0 v-14 m-180 14 q0 10 10 10 m160 0 q10 0 10 -10 m-170 10 h10 m0 0 h150 m20 -34 h234 m-508 -10 v20 m518 0 v-20 m-518 20 v46 m518 0 v-46 m-518 46 q0 10 10 10 m498 0 q10 0 10 -10 m-508 10 h10 m64 0 h10 m0 0 h414 m-508 -10 v20 m518 0 v-20 m-518 20 v24 m518 0 v-24 m-518 24 q0 10 10 10 m498 0 q10 0 10 -10 m-508 10 h10 m38 0 h10 m0 0 h440 m-508 -10 v20 m518 0 v-20 m-518 20 v24 m518 0 v-24 m-518 24 q0 10 10 10 m498 0 q10 0 10 -10 m-508 10 h10 m52 0 h10 m0 0 h426 m23 -264 h-3"/>
    <polygon points="567 61 575 57 575 65"/>
    <polygon points="567 61 559 57 559 65"/>
</svg>
