<svg xmlns="http://www.w3.org/2000/svg" width="774" height="254">
         <defs>
            <style type="text/css">
               @namespace "http://www.w3.org/2000/svg";
               .line                 {fill: none; stroke: #332900;}
               .bold-line            {stroke: #141000; shape-rendering: crispEdges; stroke-width:
               2; }
               .thin-line            {stroke: #1F1800; shape-rendering: crispEdges}
               .filled               {fill: #332900; stroke: none;}
               text.terminal         {font-family: Verdana, Sans-serif;
               font-size: 12px;
               fill: #141000;
               font-weight: bold;
               }
               text.nonterminal      {font-family: Verdana, Sans-serif;
               font-size: 12px;
               fill: #1A1400;
               }
               text.regexp           {font-family: Verdana, Sans-serif;
               font-size: 12px;
               fill: #1F1800;
               }
               rect, circle, polygon {fill: #332900; stroke: #332900;}
               rect.terminal         {fill: #FFDB4D; stroke: #332900;}
               rect.nonterminal      {fill: #FFEC9E; stroke: #332900;}
               rect.text             {fill: none; stroke: none;}    
               polygon.regexp        {fill: #FFF4C7; stroke: #332900;}
               
            </style>
         </defs>
         <polygon points="9 61 1 57 1 65"/>
         <polygon points="17 61 9 57 9 65"/>
         <rect x="31" y="47" width="36" height="32" rx="10"/>
         <rect x="29" y="45" width="36" height="32" class="terminal" rx="10"/>
         <text class="terminal" x="39" y="65">Fn</text>
         <rect x="107" y="47" width="26" height="32" rx="10"/>
         <rect x="105" y="45" width="26" height="32" class="terminal" rx="10"/>
         <text class="terminal" x="115" y="65">(</text>
         <a xmlns:xlink="http://www.w3.org/1999/xlink" xlink:href="#name" xlink:title="name">
            <rect x="213" y="47" width="54" height="32"/>
            <rect x="211" y="45" width="54" height="32" class="nonterminal"/>
            <text class="nonterminal" x="221" y="65">name</text>
         </a>
         <rect x="287" y="47" width="24" height="32" rx="10"/>
         <rect x="285" y="45" width="24" height="32" class="terminal" rx="10"/>
         <text class="terminal" x="295" y="65">:</text>
         <a xmlns:xlink="http://www.w3.org/1999/xlink" xlink:href="#type" xlink:title="type">
            <rect x="351" y="47" width="48" height="32"/>
            <rect x="349" y="45" width="48" height="32" class="nonterminal"/>
            <text class="nonterminal" x="359" y="65">type</text>
         </a>
         <rect x="193" y="3" width="24" height="32" rx="10"/>
         <rect x="191" y="1" width="24" height="32" class="terminal" rx="10"/>
         <text class="terminal" x="201" y="21">,</text>
         <rect x="459" y="47" width="24" height="32" rx="10"/>
         <rect x="457" y="45" width="24" height="32" class="terminal" rx="10"/>
         <text class="terminal" x="467" y="65">,</text>
         <rect x="543" y="47" width="26" height="32" rx="10"/>
         <rect x="541" y="45" width="26" height="32" class="terminal" rx="10"/>
         <text class="terminal" x="551" y="65">)</text>
         <rect x="629" y="47" width="36" height="32" rx="10"/>
         <rect x="627" y="45" width="36" height="32" class="terminal" rx="10"/>
         <text class="terminal" x="637" y="65">-&gt;</text>
         <a xmlns:xlink="http://www.w3.org/1999/xlink" xlink:href="#type" xlink:title="type">
            <rect x="685" y="47" width="48" height="32"/>
            <rect x="683" y="45" width="48" height="32" class="nonterminal"/>
            <text class="nonterminal" x="693" y="65">type</text>
         </a>
         <rect x="479" y="161" width="30" height="32" rx="10"/>
         <rect x="477" y="159" width="30" height="32" class="terminal" rx="10"/>
         <text class="terminal" x="487" y="179">=</text>
         <a xmlns:xlink="http://www.w3.org/1999/xlink" xlink:href="#type" xlink:title="type">
            <rect x="549" y="161" width="48" height="32"/>
            <rect x="547" y="159" width="48" height="32" class="nonterminal"/>
            <text class="nonterminal" x="557" y="179">type</text>
         </a>
         <a xmlns:xlink="http://www.w3.org/1999/xlink" xlink:href="#ECMAScriptExpression" xlink:title="ECMAScriptExpression">
            <rect x="549" y="205" width="158" height="32"/>
            <rect x="547" y="203" width="158" height="32" class="nonterminal"/>
            <text class="nonterminal" x="557" y="223">ECMAScriptExpression</text>
         </a>
         <svg:path xmlns:svg="http://www.w3.org/2000/svg" class="line" d="m17 61 h2 m0 0 h10 m36 0 h10 m20 0 h10 m26 0 h10 m60 0 h10 m54 0 h10 m0 0 h10 m24 0 h10 m-138 0 h20 m118 0 h20 m-158 0 q10 0 10 10 m138 0 q0 -10 10 -10 m-148 10 v14 m138 0 v-14 m-138 14 q0 10 10 10 m118 0 q10 0 10 -10 m-128 10 h10 m0 0 h108 m20 -34 h10 m48 0 h10 m-246 0 l20 0 m-1 0 q-9 0 -9 -10 l0 -24 q0 -10 10 -10 m226 44 l20 0 m-20 0 q10 0 10 -10 l0 -24 q0 -10 -10 -10 m-226 0 h10 m24 0 h10 m0 0 h182 m40 44 h10 m24 0 h10 m-64 0 h20 m44 0 h20 m-84 0 q10 0 10 10 m64 0 q0 -10 10 -10 m-74 10 v14 m64 0 v-14 m-64 14 q0 10 10 10 m44 0 q10 0 10 -10 m-54 10 h10 m0 0 h34 m-350 -34 h20 m350 0 h20 m-390 0 q10 0 10 10 m370 0 q0 -10 10 -10 m-380 10 v30 m370 0 v-30 m-370 30 q0 10 10 10 m350 0 q10 0 10 -10 m-360 10 h10 m0 0 h340 m20 -50 h10 m26 0 h10 m-502 0 h20 m482 0 h20 m-522 0 q10 0 10 10 m502 0 q0 -10 10 -10 m-512 10 v46 m502 0 v-46 m-502 46 q0 10 10 10 m482 0 q10 0 10 -10 m-492 10 h10 m0 0 h472 m40 -66 h10 m36 0 h10 m0 0 h10 m48 0 h10 m-144 0 h20 m124 0 h20 m-164 0 q10 0 10 10 m144 0 q0 -10 10 -10 m-154 10 v14 m144 0 v-14 m-144 14 q0 10 10 10 m124 0 q10 0 10 -10 m-134 10 h10 m0 0 h114 m22 -34 l2 0 m2 0 l2 0 m2 0 l2 0 m-338 114 l2 0 m2 0 l2 0 m2 0 l2 0 m22 0 h10 m30 0 h10 m20 0 h10 m48 0 h10 m0 0 h110 m-198 0 h20 m178 0 h20 m-218 0 q10 0 10 10 m198 0 q0 -10 10 -10 m-208 10 v24 m198 0 v-24 m-198 24 q0 10 10 10 m178 0 q10 0 10 -10 m-188 10 h10 m158 0 h10 m-268 -44 h20 m268 0 h20 m-308 0 q10 0 10 10 m288 0 q0 -10 10 -10 m-298 10 v58 m288 0 v-58 m-288 58 q0 10 10 10 m268 0 q10 0 10 -10 m-278 10 h10 m0 0 h258 m23 -78 h-3"/>
         <polygon points="765 175 773 171 773 179"/>
         <polygon points="765 175 757 171 757 179"/>
      </svg>
