     <svg xmlns="http://www.w3.org/2000/svg" width="314" height="52">
         <defs>
            <style type="text/css">
               @namespace "http://www.w3.org/2000/svg";
               .line                 {fill: none; stroke: #332900;}
               .bold-line            {stroke: #141000; shape-rendering: crispEdges; stroke-width:
               2; }
               .thin-line            {stroke: #1F1800; shape-rendering: crispEdges}
               .filled               {fill: #332900; stroke: none;}
               text.terminal         {font-family: Verdana, Sans-serif;
               font-size: 12px;
               fill: #141000;
               font-weight: bold;
               }
               text.nonterminal      {font-family: Verdana, Sans-serif;
               font-size: 12px;
               fill: #1A1400;
               }
               text.regexp           {font-family: Verdana, Sans-serif;
               font-size: 12px;
               fill: #1F1800;
               }
               rect, circle, polygon {fill: #332900; stroke: #332900;}
               rect.terminal         {fill: #FFDB4D; stroke: #332900;}
               rect.nonterminal      {fill: #FFEC9E; stroke: #332900;}
               rect.text             {fill: none; stroke: none;}    
               polygon.regexp        {fill: #FFF4C7; stroke: #332900;}
               
            </style>
         </defs>
         <polygon points="9 17 1 13 1 21"/>
         <polygon points="17 17 9 13 9 21"/>
         <a xmlns:xlink="http://www.w3.org/1999/xlink" xlink:href="#name" xlink:title="name">
            <rect x="51" y="3" width="54" height="32"/>
            <rect x="49" y="1" width="54" height="32" class="nonterminal"/>
            <text class="nonterminal" x="59" y="21">name</text>
         </a>
         <rect x="125" y="3" width="30" height="32" rx="10"/>
         <rect x="123" y="1" width="30" height="32" class="terminal" rx="10"/>
         <text class="terminal" x="133" y="21">=</text>
         <a xmlns:xlink="http://www.w3.org/1999/xlink" xlink:href="#type" xlink:title="type">
            <rect x="195" y="3" width="48" height="32"/>
            <rect x="193" y="1" width="48" height="32" class="nonterminal"/>
            <text class="nonterminal" x="203" y="21">type</text>
         </a>
         <rect x="263" y="3" width="24" height="32" rx="10"/>
         <rect x="261" y="1" width="24" height="32" class="terminal" rx="10"/>
         <text class="terminal" x="271" y="21">;</text>
         <svg:path xmlns:svg="http://www.w3.org/2000/svg" class="line" d="m17 17 h2 m20 0 h10 m54 0 h10 m0 0 h10 m30 0 h10 m-144 0 h20 m124 0 h20 m-164 0 q10 0 10 10 m144 0 q0 -10 10 -10 m-154 10 v14 m144 0 v-14 m-144 14 q0 10 10 10 m124 0 q10 0 10 -10 m-134 10 h10 m0 0 h114 m20 -34 h10 m48 0 h10 m0 0 h10 m24 0 h10 m3 0 h-3"/>
         <polygon points="305 17 313 13 313 21"/>
         <polygon points="305 17 297 13 297 21"/>
      </svg>
