<svg xmlns="http://www.w3.org/2000/svg" width="1088" height="598">
         <defs>
            <style type="text/css">
               @namespace "http://www.w3.org/2000/svg";
               .line                 {fill: none; stroke: #332900;}
               .bold-line            {stroke: #141000; shape-rendering: crispEdges; stroke-width:
               2; }
               .thin-line            {stroke: #1F1800; shape-rendering: crispEdges}
               .filled               {fill: #332900; stroke: none;}
               text.terminal         {font-family: Verdana, Sans-serif;
               font-size: 12px;
               fill: #141000;
               font-weight: bold;
               }
               text.nonterminal      {font-family: Verdana, Sans-serif;
               font-size: 12px;
               fill: #1A1400;
               }
               text.regexp           {font-family: Verdana, Sans-serif;
               font-size: 12px;
               fill: #1F1800;
               }
               rect, circle, polygon {fill: #332900; stroke: #332900;}
               rect.terminal         {fill: #FFDB4D; stroke: #332900;}
               rect.nonterminal      {fill: #FFEC9E; stroke: #332900;}
               rect.text             {fill: none; stroke: none;}    
               polygon.regexp        {fill: #FFF4C7; stroke: #332900;}
               
            </style>
         </defs>
         <polygon points="9 61 1 57 1 65"/>
         <polygon points="17 61 9 57 9 65"/>
         <rect x="51" y="47" width="36" height="32" rx="10"/>
         <rect x="49" y="45" width="36" height="32" class="terminal" rx="10"/>
         <text class="terminal" x="59" y="65">Fn</text>
         <rect x="127" y="47" width="26" height="32" rx="10"/>
         <rect x="125" y="45" width="26" height="32" class="terminal" rx="10"/>
         <text class="terminal" x="135" y="65">(</text>
         <a xmlns:xlink="http://www.w3.org/1999/xlink" xlink:href="#name" xlink:title="name">
            <rect x="213" y="47" width="54" height="32"/>
            <rect x="211" y="45" width="54" height="32" class="nonterminal"/>
            <text class="nonterminal" x="221" y="65">name</text>
         </a>
         <rect x="287" y="47" width="24" height="32" rx="10"/>
         <rect x="285" y="45" width="24" height="32" class="terminal" rx="10"/>
         <text class="terminal" x="295" y="65">:</text>
         <a xmlns:xlink="http://www.w3.org/1999/xlink" xlink:href="#type" xlink:title="type">
            <rect x="351" y="47" width="48" height="32"/>
            <rect x="349" y="45" width="48" height="32" class="nonterminal"/>
            <text class="nonterminal" x="359" y="65">type</text>
         </a>
         <rect x="193" y="3" width="24" height="32" rx="10"/>
         <rect x="191" y="1" width="24" height="32" class="terminal" rx="10"/>
         <text class="terminal" x="201" y="21">,</text>
         <rect x="459" y="47" width="24" height="32" rx="10"/>
         <rect x="457" y="45" width="24" height="32" class="terminal" rx="10"/>
         <text class="terminal" x="467" y="65">,</text>
         <rect x="523" y="47" width="26" height="32" rx="10"/>
         <rect x="521" y="45" width="26" height="32" class="terminal" rx="10"/>
         <text class="terminal" x="531" y="65">)</text>
         <rect x="609" y="47" width="36" height="32" rx="10"/>
         <rect x="607" y="45" width="36" height="32" class="terminal" rx="10"/>
         <text class="terminal" x="617" y="65">-&gt;</text>
         <a xmlns:xlink="http://www.w3.org/1999/xlink" xlink:href="#type" xlink:title="type">
            <rect x="665" y="47" width="48" height="32"/>
            <rect x="663" y="45" width="48" height="32" class="nonterminal"/>
            <text class="nonterminal" x="673" y="65">type</text>
         </a>
         <rect x="773" y="47" width="30" height="32" rx="10"/>
         <rect x="771" y="45" width="30" height="32" class="terminal" rx="10"/>
         <text class="terminal" x="781" y="65">=</text>
         <a xmlns:xlink="http://www.w3.org/1999/xlink" xlink:href="#type" xlink:title="type">
            <rect x="843" y="47" width="48" height="32"/>
            <rect x="841" y="45" width="48" height="32" class="nonterminal"/>
            <text class="nonterminal" x="851" y="65">type</text>
         </a>
         <a xmlns:xlink="http://www.w3.org/1999/xlink" xlink:href="#ECMAScriptExpression" xlink:title="ECMAScriptExpression">
            <rect x="843" y="91" width="158" height="32"/>
            <rect x="841" y="89" width="158" height="32" class="nonterminal"/>
            <text class="nonterminal" x="851" y="109">ECMAScriptExpression</text>
         </a>
         <rect x="51" y="157" width="70" height="32" rx="10"/>
         <rect x="49" y="155" width="70" height="32" class="terminal" rx="10"/>
         <text class="terminal" x="59" y="175">Generic</text>
         <rect x="51" y="201" width="44" height="32" rx="10"/>
         <rect x="49" y="199" width="44" height="32" class="terminal" rx="10"/>
         <text class="terminal" x="59" y="219">List</text>
         <rect x="135" y="201" width="26" height="32" rx="10"/>
         <rect x="133" y="199" width="26" height="32" class="terminal" rx="10"/>
         <text class="terminal" x="143" y="219">(</text>
         <a xmlns:xlink="http://www.w3.org/1999/xlink" xlink:href="#type" xlink:title="type">
            <rect x="181" y="201" width="48" height="32"/>
            <rect x="179" y="199" width="48" height="32" class="nonterminal"/>
            <text class="nonterminal" x="189" y="219">type</text>
         </a>
         <rect x="249" y="201" width="26" height="32" rx="10"/>
         <rect x="247" y="199" width="26" height="32" class="terminal" rx="10"/>
         <text class="terminal" x="257" y="219">)</text>
         <rect x="51" y="267" width="64" height="32" rx="10"/>
         <rect x="49" y="265" width="64" height="32" class="terminal" rx="10"/>
         <text class="terminal" x="59" y="285">Object</text>
         <rect x="51" y="311" width="38" height="32" rx="10"/>
         <rect x="49" y="309" width="38" height="32" class="terminal" rx="10"/>
         <text class="terminal" x="59" y="329">Int</text>
         <rect x="51" y="355" width="52" height="32" rx="10"/>
         <rect x="49" y="353" width="52" height="32" class="terminal" rx="10"/>
         <text class="terminal" x="59" y="373">Float</text>
         <rect x="51" y="399" width="60" height="32" rx="10"/>
         <rect x="49" y="397" width="60" height="32" class="terminal" rx="10"/>
         <text class="terminal" x="59" y="417">String</text>
         <polygon points="51 581 58 565 104 565 111 581 104 597 58 597"/>
         <polygon points="49 579 56 563 102 563 109 579 102 595 56 595" class="regexp"/>
         <text class="regexp" x="64" y="583">[A-Z]</text>
         <polygon points="151 547 158 531 204 531 211 547 204 563 158 563"/>
         <polygon points="149 545 156 529 202 529 209 545 202 561 156 561" class="regexp"/>
         <text class="regexp" x="164" y="549">[A-Z]</text>
         <polygon points="151 503 158 487 204 487 211 503 204 519 158 519"/>
         <polygon points="149 501 156 485 202 485 209 501 202 517 156 517" class="regexp"/>
         <text class="regexp" x="164" y="505">[a-z]</text>
         <polygon points="151 459 158 443 204 443 211 459 204 475 158 475"/>
         <polygon points="149 457 156 441 202 441 209 457 202 473 156 473" class="regexp"/>
         <text class="regexp" x="164" y="461">[0-9]</text>
         <svg:path xmlns:svg="http://www.w3.org/2000/svg" class="line" d="m17 61 h2 m20 0 h10 m36 0 h10 m20 0 h10 m26 0 h10 m40 0 h10 m54 0 h10 m0 0 h10 m24 0 h10 m-138 0 h20 m118 0 h20 m-158 0 q10 0 10 10 m138 0 q0 -10 10 -10 m-148 10 v14 m138 0 v-14 m-138 14 q0 10 10 10 m118 0 q10 0 10 -10 m-128 10 h10 m0 0 h108 m20 -34 h10 m48 0 h10 m-246 0 l20 0 m-1 0 q-9 0 -9 -10 l0 -24 q0 -10 10 -10 m226 44 l20 0 m-20 0 q10 0 10 -10 l0 -24 q0 -10 -10 -10 m-226 0 h10 m24 0 h10 m0 0 h182 m40 44 h10 m24 0 h10 m-64 0 h20 m44 0 h20 m-84 0 q10 0 10 10 m64 0 q0 -10 10 -10 m-74 10 v14 m64 0 v-14 m-64 14 q0 10 10 10 m44 0 q10 0 10 -10 m-54 10 h10 m0 0 h34 m20 -34 h10 m26 0 h10 m-462 0 h20 m442 0 h20 m-482 0 q10 0 10 10 m462 0 q0 -10 10 -10 m-472 10 v30 m462 0 v-30 m-462 30 q0 10 10 10 m442 0 q10 0 10 -10 m-452 10 h10 m0 0 h432 m40 -50 h10 m36 0 h10 m0 0 h10 m48 0 h10 m-144 0 h20 m124 0 h20 m-164 0 q10 0 10 10 m144 0 q0 -10 10 -10 m-154 10 v14 m144 0 v-14 m-144 14 q0 10 10 10 m124 0 q10 0 10 -10 m-134 10 h10 m0 0 h114 m40 -34 h10 m30 0 h10 m20 0 h10 m48 0 h10 m0 0 h110 m-198 0 h20 m178 0 h20 m-218 0 q10 0 10 10 m198 0 q0 -10 10 -10 m-208 10 v24 m198 0 v-24 m-198 24 q0 10 10 10 m178 0 q10 0 10 -10 m-188 10 h10 m158 0 h10 m-268 -44 h20 m268 0 h20 m-308 0 q10 0 10 10 m288 0 q0 -10 10 -10 m-298 10 v58 m288 0 v-58 m-288 58 q0 10 10 10 m268 0 q10 0 10 -10 m-278 10 h10 m0 0 h258 m-1010 -78 h20 m1010 0 h20 m-1050 0 q10 0 10 10 m1030 0 q0 -10 10 -10 m-1040 10 v90 m1030 0 v-90 m-1030 90 q0 10 10 10 m1010 0 q10 0 10 -10 m-1020 10 h10 m70 0 h10 m0 0 h920 m-1020 -10 v20 m1030 0 v-20 m-1030 20 v24 m1030 0 v-24 m-1030 24 q0 10 10 10 m1010 0 q10 0 10 -10 m-1020 10 h10 m44 0 h10 m20 0 h10 m26 0 h10 m0 0 h10 m48 0 h10 m0 0 h10 m26 0 h10 m-180 0 h20 m160 0 h20 m-200 0 q10 0 10 10 m180 0 q0 -10 10 -10 m-190 10 v14 m180 0 v-14 m-180 14 q0 10 10 10 m160 0 q10 0 10 -10 m-170 10 h10 m0 0 h150 m20 -34 h746 m-1020 -10 v20 m1030 0 v-20 m-1030 20 v46 m1030 0 v-46 m-1030 46 q0 10 10 10 m1010 0 q10 0 10 -10 m-1020 10 h10 m64 0 h10 m0 0 h926 m-1020 -10 v20 m1030 0 v-20 m-1030 20 v24 m1030 0 v-24 m-1030 24 q0 10 10 10 m1010 0 q10 0 10 -10 m-1020 10 h10 m38 0 h10 m0 0 h952 m-1020 -10 v20 m1030 0 v-20 m-1030 20 v24 m1030 0 v-24 m-1030 24 q0 10 10 10 m1010 0 q10 0 10 -10 m-1020 10 h10 m52 0 h10 m0 0 h938 m-1020 -10 v20 m1030 0 v-20 m-1030 20 v24 m1030 0 v-24 m-1030 24 q0 10 10 10 m1010 0 q10 0 10 -10 m-1020 10 h10 m60 0 h10 m0 0 h930 m-1020 -10 v20 m1030 0 v-20 m-1030 20 v146 m1030 0 v-146 m-1030 146 q0 10 10 10 m1010 0 q10 0 10 -10 m-1020 10 h10 m60 0 h10 m20 0 h10 m0 0 h70 m-100 0 l20 0 m-1 0 q-9 0 -9 -10 l0 -14 q0 -10 10 -10 m80 34 l20 0 m-20 0 q10 0 10 -10 l0 -14 q0 -10 -10 -10 m-80 0 h10 m60 0 h10 m-90 10 l0 -44 q0 -10 10 -10 m90 54 l0 -44 q0 -10 -10 -10 m-80 0 h10 m60 0 h10 m-90 10 l0 -44 q0 -10 10 -10 m90 54 l0 -44 q0 -10 -10 -10 m-80 0 h10 m60 0 h10 m20 122 h810 m23 -518 h-3"/>
         <polygon points="1079 61 1087 57 1087 65"/>
         <polygon points="1079 61 1071 57 1071 65"/>
      </svg>
