<svg xmlns="http://www.w3.org/2000/svg" width="342" height="366">
         <defs>
            <style type="text/css">
               @namespace "http://www.w3.org/2000/svg";
               .line                 {fill: none; stroke: #332900;}
               .bold-line            {stroke: #141000; shape-rendering: crispEdges; stroke-width:
               2; }
               .thin-line            {stroke: #1F1800; shape-rendering: crispEdges}
               .filled               {fill: #332900; stroke: none;}
               text.terminal         {font-family: Verdana, Sans-serif;
               font-size: 12px;
               fill: #141000;
               font-weight: bold;
               }
               text.nonterminal      {font-family: Verdana, Sans-serif;
               font-size: 12px;
               fill: #1A1400;
               }
               text.regexp           {font-family: Verdana, Sans-serif;
               font-size: 12px;
               fill: #1F1800;
               }
               rect, circle, polygon {fill: #332900; stroke: #332900;}
               rect.terminal         {fill: #FFDB4D; stroke: #332900;}
               rect.nonterminal      {fill: #FFEC9E; stroke: #332900;}
               rect.text             {fill: none; stroke: none;}    
               polygon.regexp        {fill: #FFF4C7; stroke: #332900;}
               
            </style>
         </defs>
         <polygon points="9 17 1 13 1 21"/>
         <polygon points="17 17 9 13 9 21"/>
         <a xmlns:xlink="http://www.w3.org/1999/xlink" xlink:href="#function" xlink:title="function">
            <rect x="51" y="3" width="70" height="32"/>
            <rect x="49" y="1" width="70" height="32" class="nonterminal"/>
            <text class="nonterminal" x="59" y="21">function</text>
         </a>
         <rect x="51" y="47" width="70" height="32" rx="10"/>
         <rect x="49" y="45" width="70" height="32" class="terminal" rx="10"/>
         <text class="terminal" x="59" y="65">Generic</text>
         <rect x="51" y="91" width="44" height="32" rx="10"/>
         <rect x="49" y="89" width="44" height="32" class="terminal" rx="10"/>
         <text class="terminal" x="59" y="109">List</text>
         <rect x="135" y="91" width="26" height="32" rx="10"/>
         <rect x="133" y="89" width="26" height="32" class="terminal" rx="10"/>
         <text class="terminal" x="143" y="109">(</text>
         <a xmlns:xlink="http://www.w3.org/1999/xlink" xlink:href="#type" xlink:title="type">
            <rect x="181" y="91" width="48" height="32"/>
            <rect x="179" y="89" width="48" height="32" class="nonterminal"/>
            <text class="nonterminal" x="189" y="109">type</text>
         </a>
         <rect x="249" y="91" width="26" height="32" rx="10"/>
         <rect x="247" y="89" width="26" height="32" class="terminal" rx="10"/>
         <text class="terminal" x="257" y="109">)</text>
         <rect x="51" y="157" width="64" height="32" rx="10"/>
         <rect x="49" y="155" width="64" height="32" class="terminal" rx="10"/>
         <text class="terminal" x="59" y="175">Object</text>
         <rect x="51" y="201" width="38" height="32" rx="10"/>
         <rect x="49" y="199" width="38" height="32" class="terminal" rx="10"/>
         <text class="terminal" x="59" y="219">Int</text>
         <rect x="51" y="245" width="52" height="32" rx="10"/>
         <rect x="49" y="243" width="52" height="32" class="terminal" rx="10"/>
         <text class="terminal" x="59" y="263">Float</text>
         <rect x="51" y="289" width="60" height="32" rx="10"/>
         <rect x="49" y="287" width="60" height="32" class="terminal" rx="10"/>
         <text class="terminal" x="59" y="307">String</text>
         <a xmlns:xlink="http://www.w3.org/1999/xlink" xlink:href="#custom-type" xlink:title="custom-type">
            <rect x="51" y="333" width="98" height="32"/>
            <rect x="49" y="331" width="98" height="32" class="nonterminal"/>
            <text class="nonterminal" x="59" y="351">custom-type</text>
         </a>
         <svg:path xmlns:svg="http://www.w3.org/2000/svg" class="line" d="m17 17 h2 m20 0 h10 m70 0 h10 m0 0 h174 m-284 0 h20 m264 0 h20 m-304 0 q10 0 10 10 m284 0 q0 -10 10 -10 m-294 10 v24 m284 0 v-24 m-284 24 q0 10 10 10 m264 0 q10 0 10 -10 m-274 10 h10 m70 0 h10 m0 0 h174 m-274 -10 v20 m284 0 v-20 m-284 20 v24 m284 0 v-24 m-284 24 q0 10 10 10 m264 0 q10 0 10 -10 m-274 10 h10 m44 0 h10 m20 0 h10 m26 0 h10 m0 0 h10 m48 0 h10 m0 0 h10 m26 0 h10 m-180 0 h20 m160 0 h20 m-200 0 q10 0 10 10 m180 0 q0 -10 10 -10 m-190 10 v14 m180 0 v-14 m-180 14 q0 10 10 10 m160 0 q10 0 10 -10 m-170 10 h10 m0 0 h150 m-254 -44 v20 m284 0 v-20 m-284 20 v46 m284 0 v-46 m-284 46 q0 10 10 10 m264 0 q10 0 10 -10 m-274 10 h10 m64 0 h10 m0 0 h180 m-274 -10 v20 m284 0 v-20 m-284 20 v24 m284 0 v-24 m-284 24 q0 10 10 10 m264 0 q10 0 10 -10 m-274 10 h10 m38 0 h10 m0 0 h206 m-274 -10 v20 m284 0 v-20 m-284 20 v24 m284 0 v-24 m-284 24 q0 10 10 10 m264 0 q10 0 10 -10 m-274 10 h10 m52 0 h10 m0 0 h192 m-274 -10 v20 m284 0 v-20 m-284 20 v24 m284 0 v-24 m-284 24 q0 10 10 10 m264 0 q10 0 10 -10 m-274 10 h10 m60 0 h10 m0 0 h184 m-274 -10 v20 m284 0 v-20 m-284 20 v24 m284 0 v-24 m-284 24 q0 10 10 10 m264 0 q10 0 10 -10 m-274 10 h10 m98 0 h10 m0 0 h146 m23 -330 h-3"/>
         <polygon points="333 17 341 13 341 21"/>
         <polygon points="333 17 325 13 325 21"/>
      </svg>
